<svg width="75" height="103" viewBox="0 0 75 103" fill="none" xmlns="http://www.w3.org/2000/svg">
<path fill-rule="evenodd" clip-rule="evenodd" d="M50.1235 44.5196L48.2747 41.2329L48.2937 41.1936C49.6623 38.359 51.7655 34.0032 54.7656 28.4342C56.4096 26.3781 57.2317 23.4999 57.2317 19.7997C57.2317 13.5958 53.5657 10.4939 46.2338 10.4939H41.6279L41.2126 23.9011C36.7555 23.7899 33.649 23.9998 29.8526 24.564L29.22 1H49.6178C55.6337 1 60.4276 2.62931 63.9996 5.88794C67.5715 9.14656 69.3575 13.4705 69.3575 18.8598C69.3575 22.933 68.2922 26.6617 66.1615 30.0456C65.0091 31.8965 63.6232 33.5333 62.0037 34.956C61.1709 35.9839 60.3483 36.9167 59.5916 37.7748L59.5914 37.7749C59.2016 38.2171 58.8292 38.6394 58.4819 39.0446L73.5132 60.2958L62.7362 66.5694L62.8693 66.798L62.6836 66.8931L50.1307 44.5233L50.1235 44.5196ZM34.3113 40.0313C36.9237 40.0313 39.9179 40.6041 43.2941 41.7497L50.9598 28.206C50.3185 28.0573 49.6335 27.91 48.9048 27.7643C45.4503 26.9888 41.6785 26.601 37.5895 26.601C34.982 26.601 32.4785 26.8566 30.0792 27.3679L29.9285 27.3907L29.9288 27.4003C22.9196 28.9278 16.8017 32.6446 11.575 38.5508C4.525 46.5173 1 56.3168 1 67.9493C1 78.1718 3.82 86.385 9.46 92.589C15.1 98.793 22.5378 101.895 31.7733 101.895C38.4708 101.895 47.0013 100.379 57.3648 97.3478L56.6245 79.053L57.3452 66H31.782L31.1388 72.4965H44.7805V88.8878C41.3965 89.9453 37.801 90.474 33.994 90.474C28.1425 90.474 23.56 87.9713 20.2465 82.9658C17.0035 77.9603 15.382 70.9808 15.382 62.0273C15.382 55.4003 17.1093 50.0775 20.5637 46.059C24.0182 42.0405 28.6007 40.0313 34.3113 40.0313ZM29.4353 61.5L30.348 43.0174L30.3309 42.3809C33.0653 41.8163 35.725 41.9834 37.7522 42.313C38.815 42.4858 39.693 42.7015 40.3017 42.8728C40.4786 42.9225 40.6324 42.9684 40.7612 43.0084L41.6147 61.5H29.4353Z" fill="#A00000"/>
<path d="M48.2747 41.2329L47.8245 41.0154L47.711 41.2505L47.8389 41.478L48.2747 41.2329ZM50.1235 44.5196L49.6877 44.7647L49.7609 44.8948L49.8935 44.9635L50.1235 44.5196ZM48.2937 41.1936L48.7439 41.411L48.744 41.411L48.2937 41.1936ZM54.7656 28.4342L54.3751 28.122L54.3468 28.1573L54.3254 28.1971L54.7656 28.4342ZM41.6279 10.4939V9.99387H41.1431L41.1281 10.4784L41.6279 10.4939ZM41.2126 23.9011L41.2001 24.4009L41.697 24.4133L41.7124 23.9166L41.2126 23.9011ZM29.8526 24.564L29.3528 24.5774L29.3679 25.1415L29.9261 25.0585L29.8526 24.564ZM29.22 1V0.5H28.7064L28.7202 1.01342L29.22 1ZM63.9996 5.88794L63.6626 6.25732L63.6626 6.25732L63.9996 5.88794ZM66.1615 30.0456L65.7384 29.7792L65.7371 29.7813L66.1615 30.0456ZM62.0037 34.956L61.6737 34.5803L61.6418 34.6083L61.6152 34.6412L62.0037 34.956ZM59.5916 37.7748L59.2165 37.4441L59.2127 37.4485L59.5916 37.7748ZM59.5914 37.7749L59.9665 38.1057L59.9703 38.1012L59.5914 37.7749ZM58.4819 39.0446L58.1022 38.7192L57.8486 39.0152L58.0737 39.3333L58.4819 39.0446ZM73.5132 60.2958L73.7648 60.7279L74.2369 60.4531L73.9214 60.0071L73.5132 60.2958ZM62.7362 66.5694L62.4846 66.1372L62.0525 66.3888L62.3041 66.8209L62.7362 66.5694ZM62.8693 66.798L63.0973 67.243L63.5668 67.0024L63.3014 66.5464L62.8693 66.798ZM62.6836 66.8931L62.2475 67.1378L62.4831 67.5576L62.9116 67.3381L62.6836 66.8931ZM50.1307 44.5233L50.5668 44.2786L50.4936 44.1482L50.3608 44.0794L50.1307 44.5233ZM43.2941 41.7497L43.1334 42.2232L43.5254 42.3562L43.7292 41.996L43.2941 41.7497ZM50.9598 28.206L51.395 28.4523L51.7245 27.8701L51.0728 27.7189L50.9598 28.206ZM48.9048 27.7643L48.7952 28.2523L48.8067 28.2546L48.9048 27.7643ZM30.0792 27.3679L30.1541 27.8622L30.1688 27.86L30.1834 27.8569L30.0792 27.3679ZM29.9285 27.3907L29.8535 26.8964L29.4169 26.9626L29.4287 27.4041L29.9285 27.3907ZM29.9288 27.4003L30.0352 27.8888L30.4397 27.8007L30.4286 27.3869L29.9288 27.4003ZM11.575 38.5508L11.9494 38.8821L11.575 38.5508ZM9.46 92.589L9.09003 92.9254L9.46 92.589ZM57.3648 97.3478L57.5051 97.8277L57.8801 97.718L57.8643 97.3275L57.3648 97.3478ZM56.6245 79.053L56.1253 79.0255L56.1239 79.0493L56.1249 79.0732L56.6245 79.053ZM57.3452 66L57.8445 66.0276L57.8736 65.5H57.3452V66ZM31.782 66V65.5H31.329L31.2844 65.9507L31.782 66ZM31.1388 72.4965L30.6412 72.4473L30.5868 72.9965H31.1388V72.4965ZM44.7805 72.4965H45.2805V71.9965H44.7805V72.4965ZM44.7805 88.8878L44.9296 89.365L45.2805 89.2554V88.8878H44.7805ZM20.2465 82.9658L19.8269 83.2376L19.8296 83.2418L20.2465 82.9658ZM20.5637 46.059L20.1846 45.7331L20.5637 46.059ZM29.4353 61.5L28.9359 61.4753L28.91 62H29.4353V61.5ZM30.348 43.0174L30.8474 43.0421L30.8483 43.0231L30.8478 43.004L30.348 43.0174ZM30.3309 42.3809L30.2298 41.8912L29.8199 41.9759L29.8311 42.3943L30.3309 42.3809ZM37.7522 42.313L37.672 42.8065L37.7522 42.313ZM40.3017 42.8728L40.4372 42.3914L40.3017 42.8728ZM40.7612 43.0084L41.2607 42.9853L41.2445 42.6348L40.9093 42.5308L40.7612 43.0084ZM41.6147 61.5V62H42.1383L42.1141 61.4769L41.6147 61.5ZM47.8389 41.478L49.6877 44.7647L50.5593 44.2744L48.7105 40.9877L47.8389 41.478ZM47.8434 40.9762L47.8245 41.0154L48.725 41.4503L48.7439 41.411L47.8434 40.9762ZM54.3254 28.1971C51.3198 33.7762 49.2127 38.1403 47.8434 40.9762L48.744 41.411C50.1119 38.5778 52.2112 34.2302 55.2058 28.6714L54.3254 28.1971ZM56.7317 19.7997C56.7317 23.4316 55.9244 26.1843 54.3751 28.122L55.1561 28.7465C56.8949 26.5719 57.7317 23.5682 57.7317 19.7997H56.7317ZM46.2338 10.9939C49.8412 10.9939 52.4535 11.7587 54.1592 13.202C55.8489 14.6318 56.7317 16.7988 56.7317 19.7997H57.7317C57.7317 16.5968 56.7814 14.1108 54.8052 12.4386C52.8449 10.78 49.9583 9.99387 46.2338 9.99387V10.9939ZM41.6279 10.9939H46.2338V9.99387H41.6279V10.9939ZM41.7124 23.9166L42.1276 10.5094L41.1281 10.4784L40.7128 23.8856L41.7124 23.9166ZM29.9261 25.0585C33.6934 24.4987 36.7711 24.2904 41.2001 24.4009L41.2251 23.4013C36.7399 23.2893 33.6046 23.5009 29.7791 24.0694L29.9261 25.0585ZM28.7202 1.01342L29.3528 24.5774L30.3524 24.5506L29.7199 0.986582L28.7202 1.01342ZM49.6178 0.5H29.22V1.5H49.6178V0.5ZM64.3365 5.51856C60.6514 2.15669 55.7266 0.5 49.6178 0.5V1.5C55.5408 1.5 60.2038 3.10193 63.6626 6.25732L64.3365 5.51856ZM69.8575 18.8598C69.8575 13.3478 68.0249 8.88334 64.3365 5.51855L63.6626 6.25732C67.1182 9.40978 68.8575 13.5932 68.8575 18.8598H69.8575ZM66.5846 30.312C68.7665 26.8467 69.8575 23.0255 69.8575 18.8598H68.8575C68.8575 22.8406 67.8178 26.4766 65.7384 29.7792L66.5846 30.312ZM62.3337 35.3316C63.9903 33.8762 65.408 32.2018 66.586 30.3099L65.7371 29.7813C64.6102 31.5911 63.256 33.1903 61.6737 34.5803L62.3337 35.3316ZM59.9666 38.1055C60.7226 37.2482 61.5518 36.3079 62.3922 35.2707L61.6152 34.6412C60.7899 35.6598 59.9739 36.5852 59.2165 37.4441L59.9666 38.1055ZM59.9703 38.1012L59.9704 38.1011L59.2127 37.4485L59.2126 37.4487L59.9703 38.1012ZM58.8616 39.37C59.2061 38.9679 59.5761 38.5483 59.9665 38.1056L59.2164 37.4442C58.8271 37.8858 58.4522 38.3108 58.1022 38.7192L58.8616 39.37ZM73.9214 60.0071L58.8901 38.7559L58.0737 39.3333L73.105 60.5845L73.9214 60.0071ZM62.9877 67.0015L73.7648 60.7279L73.2617 59.8637L62.4846 66.1372L62.9877 67.0015ZM63.3014 66.5464L63.1683 66.3178L62.3041 66.8209L62.4371 67.0495L63.3014 66.5464ZM62.9116 67.3381L63.0973 67.243L62.6413 66.353L62.4556 66.4481L62.9116 67.3381ZM49.6947 44.768L62.2475 67.1378L63.1196 66.6484L50.5668 44.2786L49.6947 44.768ZM49.8935 44.9635L49.9007 44.9673L50.3608 44.0794L50.3535 44.0756L49.8935 44.9635ZM43.4548 41.2762C40.0444 40.119 36.9942 39.5313 34.3113 39.5313V40.5313C36.8532 40.5313 39.7915 41.0892 43.1334 42.2232L43.4548 41.2762ZM50.5247 27.9597L42.859 41.5034L43.7292 41.996L51.395 28.4523L50.5247 27.9597ZM48.8067 28.2546C49.531 28.3994 50.211 28.5456 50.8468 28.6931L51.0728 27.7189C50.4259 27.5689 49.7359 27.4206 49.0028 27.274L48.8067 28.2546ZM37.5895 27.101C41.6472 27.101 45.3817 27.4858 48.7952 28.2521L49.0143 27.2764C45.5188 26.4917 41.7098 26.101 37.5895 26.101V27.101ZM30.1834 27.8569C32.5464 27.3534 35.0148 27.101 37.5895 27.101V26.101C34.9492 26.101 32.4107 26.3599 29.975 26.8789L30.1834 27.8569ZM30.0035 27.8851L30.1541 27.8622L30.0042 26.8735L29.8535 26.8964L30.0035 27.8851ZM30.4286 27.3869L30.4283 27.3774L29.4287 27.4041L29.4289 27.4137L30.4286 27.3869ZM11.9494 38.8821C17.1131 33.0472 23.1402 29.3915 30.0352 27.8888L29.8223 26.9118C22.699 28.4641 16.4903 32.2421 11.2006 38.2194L11.9494 38.8821ZM1.5 67.9493C1.5 56.4265 4.98815 46.7484 11.9494 38.8821L11.2006 38.2194C4.06185 46.2862 0.5 56.207 0.5 67.9493H1.5ZM9.82997 92.2527C4.29108 86.1599 1.5 78.076 1.5 67.9493H0.5C0.5 78.2675 3.34892 86.6101 9.09003 92.9254L9.82997 92.2527ZM31.7733 101.395C22.6627 101.395 15.365 98.3412 9.82997 92.2527L9.09003 92.9254C14.835 99.2448 22.4128 102.395 31.7733 102.395V101.395ZM57.2244 96.8679C46.8822 99.8931 38.4033 101.395 31.7733 101.395V102.395C38.5382 102.395 47.1203 100.865 57.5051 97.8277L57.2244 96.8679ZM56.1249 79.0732L56.8652 97.368L57.8643 97.3275L57.1241 79.0328L56.1249 79.0732ZM56.846 65.9724L56.1253 79.0255L57.1237 79.0806L57.8445 66.0276L56.846 65.9724ZM31.782 66.5H57.3452V65.5H31.782V66.5ZM31.6363 72.5458L32.2795 66.0493L31.2844 65.9507L30.6412 72.4473L31.6363 72.5458ZM44.7805 71.9965H31.1388V72.9965H44.7805V71.9965ZM45.2805 88.8878V72.4965H44.2805V88.8878H45.2805ZM33.994 90.974C37.8479 90.974 41.4939 90.4387 44.9296 89.365L44.6314 88.4105C41.2991 89.4519 37.7542 89.974 33.994 89.974V90.974ZM19.8296 83.2418C23.2328 88.3828 27.9696 90.974 33.994 90.974V89.974C28.3154 89.974 23.8872 87.5597 20.6634 82.6898L19.8296 83.2418ZM14.882 62.0273C14.882 71.032 16.5113 78.1201 19.8269 83.2376L20.6661 82.6939C17.4957 77.8004 15.882 70.9295 15.882 62.0273H14.882ZM20.1846 45.7331C16.6341 49.8633 14.882 55.3116 14.882 62.0273H15.882C15.882 55.4889 17.5844 50.2918 20.9429 46.385L20.1846 45.7331ZM34.3113 39.5313C28.4679 39.5313 23.7421 41.5947 20.1846 45.7331L20.9429 46.385C24.2944 42.4863 28.7336 40.5313 34.3113 40.5313V39.5313ZM29.9347 61.5247L30.8474 43.0421L29.8486 42.9928L28.9359 61.4753L29.9347 61.5247ZM30.8478 43.004L30.8307 42.3675L29.8311 42.3943L29.8482 43.0308L30.8478 43.004ZM30.432 42.8706C33.0878 42.3222 35.6824 42.483 37.672 42.8065L37.8325 41.8195C35.7676 41.4838 33.0427 41.3104 30.2298 41.8912L30.432 42.8706ZM37.672 42.8065C38.7132 42.9758 39.5725 43.187 40.1663 43.3541L40.4372 42.3914C39.8134 42.216 38.9169 41.9958 37.8325 41.8195L37.672 42.8065ZM40.1663 43.3541C40.3387 43.4026 40.4883 43.4472 40.6131 43.4859L40.9093 42.5308C40.7765 42.4896 40.6184 42.4424 40.4372 42.3914L40.1663 43.3541ZM40.2617 43.0314L41.1152 61.5231L42.1141 61.4769L41.2607 42.9853L40.2617 43.0314ZM41.6147 61H29.4353V62H41.6147V61Z" fill="black"/>
</svg>
